<?xml version="1.0" encoding="UTF-8"?>
<!DOCTYPE svg PUBLIC "-//W3C//DTD SVG 1.1//EN" "http://www.w3.org/Graphics/SVG/1.1/DTD/svg11.dtd">
<!-- Creator: CorelDRAW 2021 (64-Bit) -->
<svg xmlns="http://www.w3.org/2000/svg" xml:space="preserve" width="86.7836mm" height="86.7836mm" version="1.1" style="shape-rendering:geometricPrecision; text-rendering:geometricPrecision; image-rendering:optimizeQuality; fill-rule:evenodd; clip-rule:evenodd"
viewBox="0 0 18306.12 18306.12"
 xmlns:xlink="http://www.w3.org/1999/xlink"
 xmlns:xodm="http://www.corel.com/coreldraw/odm/2003">
 <defs>
  <style type="text/css">
   <![CDATA[
    .str1 {stroke:black;stroke-width:142.87;stroke-miterlimit:11.4737}
    .str2 {stroke:black;stroke-width:142.87;stroke-linecap:round;stroke-linejoin:round;stroke-miterlimit:22.9256}
    .str0 {stroke:#00CCFF;stroke-width:446.5;stroke-linecap:round;stroke-linejoin:round;stroke-miterlimit:22.9256}
    .fil2 {fill:none;fill-rule:nonzero}
    .fil0 {fill:white}
    .fil3 {fill:#669900;fill-rule:nonzero}
    .fil1 {fill:#CC0000;fill-rule:nonzero}
    .fil4 {fill:#FF9900;fill-rule:nonzero}
   ]]>
  </style>
 </defs>
 <g id="Warstwa_x0020_1">
  <metadata id="CorelCorpID_0Corel-Layer"/>
  <circle class="fil0 str0" cx="9153.06" cy="9153.06" r="8929.79"/>
  <path class="fil1" d="M15201.34 13183.51c373.68,211 762.57,113.74 972.18,-243.17 209.61,-356.91 100.22,-735.55 -273.48,-946.55l838.46 -1427.66c244.54,-416.4 80.43,-984.35 -417.83,-1265.7 -685.11,-386.84 -1164.98,-261.76 -1827.9,5.55l-1956.07 788.66c0,0 -423.82,156.75 -598.5,454.17 -209.59,356.91 -100.2,735.55 335.8,981.74l1557.09 879.24 -209.61 356.89c-209.63,356.93 -100.24,735.55 335.75,981.74 435.99,246.19 824.86,148.92 1034.49,-208.01l209.61 -356.89zm-1263.23 -2297.56l34.91 -59.49 913.71 -355.41 62.29 35.16 -419.22 713.84 -591.69 -334.11z"/>
  <path id="_1" class="fil2 str1" d="M15201.34 13183.51c373.68,211 762.57,113.74 972.18,-243.17 209.61,-356.91 100.22,-735.55 -273.48,-946.55l838.46 -1427.66c244.54,-416.4 80.43,-984.35 -417.83,-1265.7 -685.11,-386.84 -1164.98,-261.76 -1827.9,5.55l-1956.07 788.66c0,0 -423.82,156.75 -598.5,454.17 -209.59,356.91 -100.2,735.55 335.8,981.74l1557.09 879.24 -209.61 356.89c-209.63,356.93 -100.24,735.55 335.75,981.74 435.99,246.19 824.86,148.92 1034.49,-208.01l209.61 -356.89zm-1263.23 -2297.56l34.91 -59.49 913.71 -355.41 62.29 35.16 -419.22 713.84 -591.69 -334.11z"/>
  <path class="fil3" d="M2342.78 5204.65c0,-63.51 14.87,-125.02 44.63,-184.55 29.76,-59.53 69.46,-112.11 119.08,-157.76 49.61,-45.65 105.17,-82.35 166.68,-110.13 61.51,-27.78 122.03,-41.68 181.58,-41.68l476.24 0c309.58,0 579.45,51.6 809.65,154.79 230.18,103.19 421.67,240.11 574.47,410.76 152.8,170.67 267.89,363.15 345.29,577.47 77.39,214.31 116.08,434.58 116.08,660.81 0,222.25 -36.7,438.54 -110.13,648.89 -73.43,210.35 -184.55,396.88 -333.37,559.6 -148.84,162.72 -333.39,294.68 -553.65,395.87 -220.26,101.21 -477.25,151.81 -770.94,151.81l-553.63 0c-154.79,0 -278.82,-44.66 -372.08,-133.95 -93.28,-89.29 -139.9,-209.36 -139.9,-360.16l0 -2571.78zm1071.57 2077.65c130.95,0 245.07,-23.82 342.29,-71.45 97.24,-47.61 179.59,-109.14 247.05,-184.53 67.48,-75.41 118.08,-161.73 151.81,-258.97 33.73,-97.24 50.6,-197.44 50.6,-300.63 0,-95.26 -15.88,-188.52 -47.63,-279.81 -31.75,-91.27 -80.37,-171.64 -145.84,-241.1 -65.5,-69.44 -148.84,-125.99 -250.05,-169.66 -101.19,-43.66 -219.27,-65.48 -354.21,-65.48l-83.34 0 0 1571.63 89.31 0z"/>
  <path id="_1_0" class="fil3" d="M5450.33 6478.62c0,-250.03 47.63,-486.17 142.89,-708.42 95.24,-222.27 224.23,-415.74 386.95,-580.44 162.72,-164.7 355.2,-294.68 577.47,-389.92 222.25,-95.26 458.39,-142.89 708.42,-142.89 250.03,0 486.17,47.63 708.42,142.89 222.27,95.24 415.74,225.22 580.44,389.92 164.7,164.7 294.68,358.18 389.94,580.44 95.24,222.25 142.87,458.39 142.87,708.42 0,250.05 -47.63,486.17 -142.87,708.44 -95.26,222.25 -225.24,414.73 -389.94,577.45 -164.7,162.72 -358.18,291.71 -580.44,386.97 -222.25,95.24 -458.39,142.87 -708.42,142.87 -250.03,0 -486.17,-47.63 -708.42,-142.87 -222.27,-95.26 -414.75,-224.25 -577.47,-386.97 -162.72,-162.72 -291.71,-355.2 -386.95,-577.45 -95.26,-222.27 -142.89,-458.39 -142.89,-708.44zm1000.15 11.92c0,115.09 20.82,222.25 62.5,321.47 41.68,99.21 100.22,186.53 175.63,261.92 75.39,75.41 162.72,133.95 261.92,175.63 99.23,41.66 206.38,62.5 321.47,62.5 115.11,0 223.26,-20.84 324.45,-62.5 101.21,-41.68 188.52,-100.22 261.95,-175.63 73.43,-75.39 131.96,-162.72 175.63,-261.92 43.64,-99.23 65.48,-206.38 65.48,-321.47 0,-115.11 -21.83,-223.26 -65.48,-324.45 -43.66,-101.21 -102.2,-188.54 -175.63,-261.95 -73.43,-73.43 -160.74,-131.96 -261.95,-175.63 -101.19,-43.64 -209.34,-65.48 -324.45,-65.48 -115.09,0 -222.25,21.83 -321.47,65.48 -99.21,43.66 -186.53,102.2 -261.92,175.63 -75.41,73.41 -133.95,160.74 -175.63,261.95 -41.68,101.19 -62.5,209.34 -62.5,324.45z"/>
  <path id="_2" class="fil3" d="M10415.28 7776.42c0,158.73 -48.62,279.79 -145.84,363.13 -97.24,83.34 -213.32,125.02 -348.26,125.02 -130.97,0 -245.07,-41.68 -342.31,-125.02 -97.24,-83.34 -145.84,-204.4 -145.84,-363.13l0 -2571.78c0,-158.75 48.6,-279.81 145.84,-363.15 97.24,-83.34 211.34,-125.02 342.31,-125.02l23.82 0c174.62,0 299.64,73.43 375.05,220.28l892.97 1351.36 0 -1083.47c0,-158.75 48.62,-279.81 145.84,-363.15 97.24,-83.34 211.34,-125.02 342.31,-125.02 134.94,0 251.02,41.68 348.26,125.02 97.24,83.34 145.86,204.4 145.86,363.15l0 2571.78c0,158.73 -48.62,279.79 -145.86,363.13 -97.24,83.34 -213.32,125.02 -348.26,125.02 -67.46,0 -125.02,-7.95 -172.63,-23.82 -47.63,-15.88 -88.32,-35.71 -122.05,-59.53 -33.73,-23.82 -60.52,-47.63 -80.37,-71.45 -19.85,-23.82 -35.71,-43.66 -47.63,-59.53l-863.21 -1285.89 0 1012.05z"/>
  <path id="_3" class="fil3" d="M13094.22 8270.53c-325.44,0 -488.16,-164.7 -488.16,-494.11l0 -2571.78c0,-329.42 162.72,-494.13 488.16,-494.13l1666.89 0c154.79,0 275.82,48.62 363.13,145.86 87.33,97.22 130.97,213.32 130.97,348.26 0,134.94 -43.64,251.02 -130.97,348.26 -87.31,97.22 -208.35,145.84 -363.13,145.84l-1178.73 0 0 297.66 940.6 0c154.79,0 275.82,48.62 363.15,145.86 87.31,97.22 130.95,213.32 130.95,348.26 0,134.94 -43.64,251.02 -130.95,348.26 -87.33,97.22 -208.37,145.84 -363.15,145.84l-940.6 0 0 297.66 1178.73 0c154.79,0 275.82,48.62 363.13,145.86 87.33,97.22 130.97,213.32 130.97,348.26 0,134.94 -43.64,251.02 -130.97,348.26 -87.31,97.22 -208.35,145.84 -363.13,145.84l-1666.89 0z"/>
  <path id="_4" class="fil2 str2" d="M2342.78 5204.65c0,-63.51 14.87,-125.02 44.63,-184.55 29.76,-59.53 69.46,-112.11 119.08,-157.76 49.61,-45.65 105.17,-82.35 166.68,-110.13 61.51,-27.78 122.03,-41.68 181.58,-41.68l476.24 0c309.58,0 579.45,51.6 809.65,154.79 230.18,103.19 421.67,240.11 574.47,410.76 152.8,170.67 267.89,363.15 345.29,577.47 77.39,214.31 116.08,434.58 116.08,660.81 0,222.25 -36.7,438.54 -110.13,648.89 -73.43,210.35 -184.55,396.88 -333.37,559.6 -148.84,162.72 -333.39,294.68 -553.65,395.87 -220.26,101.21 -477.25,151.81 -770.94,151.81l-553.63 0c-154.79,0 -278.82,-44.66 -372.08,-133.95 -93.28,-89.29 -139.9,-209.36 -139.9,-360.16l0 -2571.78zm1071.57 2077.65c130.95,0 245.07,-23.82 342.29,-71.45 97.24,-47.61 179.59,-109.14 247.05,-184.53 67.48,-75.41 118.08,-161.73 151.81,-258.97 33.73,-97.24 50.6,-197.44 50.6,-300.63 0,-95.26 -15.88,-188.52 -47.63,-279.81 -31.75,-91.27 -80.37,-171.64 -145.84,-241.1 -65.5,-69.44 -148.84,-125.99 -250.05,-169.66 -101.19,-43.66 -219.27,-65.48 -354.21,-65.48l-83.34 0 0 1571.63 89.31 0z"/>
  <path id="_5" class="fil2 str2" d="M5450.33 6478.62c0,-250.03 47.63,-486.17 142.89,-708.42 95.24,-222.27 224.23,-415.74 386.95,-580.44 162.72,-164.7 355.2,-294.68 577.47,-389.92 222.25,-95.26 458.39,-142.89 708.42,-142.89 250.03,0 486.17,47.63 708.42,142.89 222.27,95.24 415.74,225.22 580.44,389.92 164.7,164.7 294.68,358.18 389.94,580.44 95.24,222.25 142.87,458.39 142.87,708.42 0,250.05 -47.63,486.17 -142.87,708.44 -95.26,222.25 -225.24,414.73 -389.94,577.45 -164.7,162.72 -358.18,291.71 -580.44,386.97 -222.25,95.24 -458.39,142.87 -708.42,142.87 -250.03,0 -486.17,-47.63 -708.42,-142.87 -222.27,-95.26 -414.75,-224.25 -577.47,-386.97 -162.72,-162.72 -291.71,-355.2 -386.95,-577.45 -95.26,-222.27 -142.89,-458.39 -142.89,-708.44zm1000.15 11.92c0,115.09 20.82,222.25 62.5,321.47 41.68,99.21 100.22,186.53 175.63,261.92 75.39,75.41 162.72,133.95 261.92,175.63 99.23,41.66 206.38,62.5 321.47,62.5 115.11,0 223.26,-20.84 324.45,-62.5 101.21,-41.68 188.52,-100.22 261.95,-175.63 73.43,-75.39 131.96,-162.72 175.63,-261.92 43.64,-99.23 65.48,-206.38 65.48,-321.47 0,-115.11 -21.83,-223.26 -65.48,-324.45 -43.66,-101.21 -102.2,-188.54 -175.63,-261.95 -73.43,-73.43 -160.74,-131.96 -261.95,-175.63 -101.19,-43.64 -209.34,-65.48 -324.45,-65.48 -115.09,0 -222.25,21.83 -321.47,65.48 -99.21,43.66 -186.53,102.2 -261.92,175.63 -75.41,73.41 -133.95,160.74 -175.63,261.95 -41.68,101.19 -62.5,209.34 -62.5,324.45z"/>
  <path id="_6" class="fil2 str2" d="M10415.28 7776.42c0,158.73 -48.62,279.79 -145.84,363.13 -97.24,83.34 -213.32,125.02 -348.26,125.02 -130.97,0 -245.07,-41.68 -342.31,-125.02 -97.24,-83.34 -145.84,-204.4 -145.84,-363.13l0 -2571.78c0,-158.75 48.6,-279.81 145.84,-363.15 97.24,-83.34 211.34,-125.02 342.31,-125.02l23.82 0c174.62,0 299.64,73.43 375.05,220.28l892.97 1351.36 0 -1083.47c0,-158.75 48.62,-279.81 145.84,-363.15 97.24,-83.34 211.34,-125.02 342.31,-125.02 134.94,0 251.02,41.68 348.26,125.02 97.24,83.34 145.86,204.4 145.86,363.15l0 2571.78c0,158.73 -48.62,279.79 -145.86,363.13 -97.24,83.34 -213.32,125.02 -348.26,125.02 -67.46,0 -125.02,-7.95 -172.63,-23.82 -47.63,-15.88 -88.32,-35.71 -122.05,-59.53 -33.73,-23.82 -60.52,-47.63 -80.37,-71.45 -19.85,-23.82 -35.71,-43.66 -47.63,-59.53l-863.21 -1285.89 0 1012.05z"/>
  <path id="_7" class="fil2 str2" d="M13094.22 8270.53c-325.44,0 -488.16,-164.7 -488.16,-494.11l0 -2571.78c0,-329.42 162.72,-494.13 488.16,-494.13l1666.89 0c154.79,0 275.82,48.62 363.13,145.86 87.33,97.22 130.97,213.32 130.97,348.26 0,134.94 -43.64,251.02 -130.97,348.26 -87.31,97.22 -208.35,145.84 -363.13,145.84l-1178.73 0 0 297.66 940.6 0c154.79,0 275.82,48.62 363.15,145.86 87.31,97.22 130.95,213.32 130.95,348.26 0,134.94 -43.64,251.02 -130.95,348.26 -87.33,97.22 -208.37,145.84 -363.15,145.84l-940.6 0 0 297.66 1178.73 0c154.79,0 275.82,48.62 363.13,145.86 87.33,97.22 130.97,213.32 130.97,348.26 0,134.94 -43.64,251.02 -130.97,348.26 -87.31,97.22 -208.35,145.84 -363.13,145.84l-1666.89 0z"/>
  <path class="fil4" d="M3316.65 12909.5c0,158.73 -48.62,279.79 -145.84,363.13 -97.24,83.34 -211.34,125.02 -342.31,125.02 -130.97,0 -245.07,-41.68 -342.31,-125.02 -97.24,-83.34 -145.84,-204.4 -145.84,-363.13l0 -2571.78c0,-329.42 162.72,-494.13 488.16,-494.13l1666.89 0c154.79,0 275.82,48.62 363.13,145.86 87.33,97.22 130.97,213.32 130.97,348.26 0,134.94 -43.64,251.02 -130.97,348.26 -87.31,97.22 -208.35,145.84 -363.13,145.84l-1178.73 0 0 297.66 940.6 0c154.79,0 275.82,48.62 363.15,145.86 87.31,97.22 130.95,213.32 130.95,348.26 0,134.94 -43.64,251.02 -130.95,348.26 -87.33,97.22 -208.37,145.84 -363.15,145.84l-940.6 0 0 791.78z"/>
  <path id="_1_1" class="fil4" d="M8114.92 11837.92c0,1043.79 -476.24,1565.68 -1428.76,1565.68 -968.38,0 -1452.57,-521.89 -1452.57,-1565.68l0 -1500.2c0,-158.75 48.62,-279.81 145.84,-363.15 97.24,-83.34 211.34,-125.02 342.31,-125.02 134.94,0 251.02,41.68 348.26,125.02 97.24,83.34 145.86,204.4 145.86,363.15l0 1649.02c0,293.69 152.78,440.55 458.39,440.55 305.59,0 458.39,-146.86 458.39,-440.55l0 -1649.02c0,-158.75 48.62,-279.81 145.84,-363.15 97.24,-83.34 211.34,-125.02 342.31,-125.02 134.94,0 251.02,41.68 348.26,125.02 97.24,83.34 145.84,204.4 145.84,363.15l0 1500.2z"/>
  <path id="_2_2" class="fil4" d="M9484.15 12909.5c0,158.73 -48.62,279.79 -145.84,363.13 -97.24,83.34 -213.32,125.02 -348.26,125.02 -130.97,0 -245.07,-41.68 -342.31,-125.02 -97.24,-83.34 -145.84,-204.4 -145.84,-363.13l0 -2571.78c0,-158.75 48.6,-279.81 145.84,-363.15 97.24,-83.34 211.34,-125.02 342.31,-125.02l23.82 0c174.62,0 299.64,73.43 375.05,220.28l892.97 1351.36 0 -1083.47c0,-158.75 48.62,-279.81 145.84,-363.15 97.24,-83.34 211.34,-125.02 342.31,-125.02 134.94,0 251.02,41.68 348.26,125.02 97.24,83.34 145.86,204.4 145.86,363.15l0 2571.78c0,158.73 -48.62,279.79 -145.86,363.13 -97.24,83.34 -213.32,125.02 -348.26,125.02 -67.46,0 -125.02,-7.95 -172.63,-23.82 -47.63,-15.88 -88.32,-35.71 -122.05,-59.53 -33.73,-23.82 -60.52,-47.63 -80.37,-71.45 -19.85,-23.82 -35.71,-43.66 -47.63,-59.53l-863.21 -1285.89 0 1012.05z"/>
  <path id="_3_3" class="fil2 str2" d="M3316.65 12909.5c0,158.73 -48.62,279.79 -145.84,363.13 -97.24,83.34 -211.34,125.02 -342.31,125.02 -130.97,0 -245.07,-41.68 -342.31,-125.02 -97.24,-83.34 -145.84,-204.4 -145.84,-363.13l0 -2571.78c0,-329.42 162.72,-494.13 488.16,-494.13l1666.89 0c154.79,0 275.82,48.62 363.13,145.86 87.33,97.22 130.97,213.32 130.97,348.26 0,134.94 -43.64,251.02 -130.97,348.26 -87.31,97.22 -208.35,145.84 -363.13,145.84l-1178.73 0 0 297.66 940.6 0c154.79,0 275.82,48.62 363.15,145.86 87.31,97.22 130.95,213.32 130.95,348.26 0,134.94 -43.64,251.02 -130.95,348.26 -87.33,97.22 -208.37,145.84 -363.15,145.84l-940.6 0 0 791.78z"/>
  <path id="_4_4" class="fil2 str2" d="M8114.92 11837.92c0,1043.79 -476.24,1565.68 -1428.76,1565.68 -968.38,0 -1452.57,-521.89 -1452.57,-1565.68l0 -1500.2c0,-158.75 48.62,-279.81 145.84,-363.15 97.24,-83.34 211.34,-125.02 342.31,-125.02 134.94,0 251.02,41.68 348.26,125.02 97.24,83.34 145.86,204.4 145.86,363.15l0 1649.02c0,293.69 152.78,440.55 458.39,440.55 305.59,0 458.39,-146.86 458.39,-440.55l0 -1649.02c0,-158.75 48.62,-279.81 145.84,-363.15 97.24,-83.34 211.34,-125.02 342.31,-125.02 134.94,0 251.02,41.68 348.26,125.02 97.24,83.34 145.84,204.4 145.84,363.15l0 1500.2z"/>
  <path id="_5_5" class="fil2 str2" d="M9484.15 12909.5c0,158.73 -48.62,279.79 -145.84,363.13 -97.24,83.34 -213.32,125.02 -348.26,125.02 -130.97,0 -245.07,-41.68 -342.31,-125.02 -97.24,-83.34 -145.84,-204.4 -145.84,-363.13l0 -2571.78c0,-158.75 48.6,-279.81 145.84,-363.15 97.24,-83.34 211.34,-125.02 342.31,-125.02l23.82 0c174.62,0 299.64,73.43 375.05,220.28l892.97 1351.36 0 -1083.47c0,-158.75 48.62,-279.81 145.84,-363.15 97.24,-83.34 211.34,-125.02 342.31,-125.02 134.94,0 251.02,41.68 348.26,125.02 97.24,83.34 145.86,204.4 145.86,363.15l0 2571.78c0,158.73 -48.62,279.79 -145.86,363.13 -97.24,83.34 -213.32,125.02 -348.26,125.02 -67.46,0 -125.02,-7.95 -172.63,-23.82 -47.63,-15.88 -88.32,-35.71 -122.05,-59.53 -33.73,-23.82 -60.52,-47.63 -80.37,-71.45 -19.85,-23.82 -35.71,-43.66 -47.63,-59.53l-863.21 -1285.89 0 1012.05z"/>
 </g>
</svg>
