<?xml version="1.0" encoding="UTF-8"?>
<!DOCTYPE svg PUBLIC "-//W3C//DTD SVG 1.1//EN" "http://www.w3.org/Graphics/SVG/1.1/DTD/svg11.dtd">
<!-- Creator: CorelDRAW 2021 (64-Bit) -->
<svg xmlns="http://www.w3.org/2000/svg" xml:space="preserve" width="1025px" height="1025px" version="1.1" style="shape-rendering:geometricPrecision; text-rendering:geometricPrecision; image-rendering:optimizeQuality; fill-rule:evenodd; clip-rule:evenodd"
viewBox="0 0 841.85 841.85"
 xmlns:xlink="http://www.w3.org/1999/xlink"
 xmlns:xodm="http://www.corel.com/coreldraw/odm/2003">
 <defs>
  <style type="text/css">
   <![CDATA[
    .str0 {stroke:#00CCFF;stroke-width:20.53;stroke-linecap:round;stroke-linejoin:round;stroke-miterlimit:22.9256}
    .fil0 {fill:white}
    .fil2 {fill:#669900;fill-rule:nonzero}
    .fil3 {fill:#CC0000;fill-rule:nonzero}
    .fil1 {fill:#FF9900;fill-rule:nonzero}
   ]]>
  </style>
 </defs>
 <g id="Warstwa_x0020_1">
  <metadata id="CorelCorpID_0Corel-Layer"/>
  <circle class="fil0 str0" cx="420.92" cy="420.92" r="410.66"/>
  <path class="fil1" d="M376.77 767.35c0.39,1.01 1.03,2.4 1.91,4.17 3.43,6.89 8,12.85 13.73,17.93 5.73,5.08 12.12,8.92 19.21,11.56 7.09,2.64 14.48,3.92 22.19,3.88 7.72,-0.05 15.25,-1.57 22.61,-4.58 0.95,-0.35 2.36,-1 4.24,-1.94 7.01,-3.49 13.12,-8.11 18.33,-13.85 5.21,-5.74 9.22,-12.15 12.03,-19.22 2.81,-7.08 4.21,-14.44 4.2,-22.1 0,-7.66 -1.47,-15.11 -4.41,-22.35 -0.39,-1.02 -1.03,-2.41 -1.91,-4.18 -3.43,-6.89 -8.01,-12.87 -13.74,-17.95 -5.72,-5.08 -12.13,-8.94 -19.22,-11.58 -7.09,-2.64 -14.48,-3.92 -22.17,-3.83 -7.69,0.08 -15.22,1.63 -22.58,4.63 -0.99,0.5 -2.38,1.19 -4.17,2.09 -7.01,3.49 -13.12,8.1 -18.33,13.84 -5.21,5.74 -9.21,12.11 -11.97,19.17 -2.77,7.05 -4.18,14.4 -4.25,22.01 -0.06,7.64 1.37,15.08 4.3,22.3zm32.62 -19.57l-10.8 -21.67c-1.44,-2.9 -1.62,-5.51 -0.54,-7.84 0.88,-2.28 2.44,-3.99 4.69,-5.11l26.94 -13.43c2.51,-1.25 4.91,-1.62 7.18,-1.1 2.41,0.56 4.26,2.12 5.53,4.68 1.1,2.21 1.35,4.4 0.75,6.57 -0.64,2.31 -2.36,4.15 -5.14,5.54l-18.32 9.13 6.66 13.38 16.44 -8.19c1.7,-0.85 3.34,-1.17 4.9,-0.96 1.61,0.08 3.03,0.67 4.25,1.77 1.31,0.83 2.33,1.98 3.06,3.44 0.99,1.98 1.17,4.15 0.55,6.5 -0.67,2.26 -2.26,4.02 -4.78,5.27l-16.43 8.19 11.02 22.12c1.06,2.12 1.37,4.44 0.95,6.97 -0.42,2.52 -2.25,4.59 -5.48,6.2 -5.75,2.87 -10.14,1.25 -13.17,-4.82l-18.26 -36.64z"/>
  <path id="_1" class="fil1" d="M491.23 710.22c0.4,1.02 1.04,2.41 1.92,4.17 3.43,6.89 8.01,12.87 13.73,17.95 5.73,5.09 12.14,8.95 19.23,11.59 7.09,2.64 14.49,3.94 22.2,3.89 7.72,-0.04 15.25,-1.56 22.61,-4.57 0.94,-0.36 2.36,-1.01 4.24,-1.95 7.01,-3.49 13.11,-8.1 18.33,-13.84 5.21,-5.74 9.22,-12.15 12.03,-19.22 2.8,-7.08 4.21,-14.45 4.2,-22.1 0,-7.66 -1.47,-15.11 -4.41,-22.36 -0.39,-1.01 -1.03,-2.41 -1.91,-4.17 -3.43,-6.89 -8.01,-12.87 -13.74,-17.95 -5.73,-5.09 -12.13,-8.95 -19.22,-11.59 -7.09,-2.64 -14.48,-3.91 -22.17,-3.83 -7.7,0.09 -15.22,1.64 -22.58,4.64 -1.03,0.41 -2.45,1.06 -4.24,1.95 -7.01,3.49 -13.11,8.11 -18.33,13.84 -5.21,5.74 -9.2,12.14 -11.96,19.19 -2.76,7.06 -4.18,14.4 -4.24,22.04 -0.06,7.63 1.38,15.07 4.31,22.32zm25.12 -45.09l18.35 36.82c2.38,4.77 5.77,7.76 10.19,8.97 4.6,1.13 9.05,0.62 13.36,-1.53 4.49,-2.24 7.58,-5.49 9.27,-9.75 1.73,-4.17 1.39,-8.68 -1.03,-13.54l-18.35 -36.81c-1.4,-2.83 -1.72,-5.48 -0.94,-7.97 0.78,-2.26 2.47,-4.04 5.08,-5.34 2.42,-1.21 4.93,-1.46 7.52,-0.77 2.45,0.65 4.4,2.43 5.86,5.35l18.34 36.82c3.17,6.35 4.55,12.72 4.14,19.1 -0.41,6.37 -2.51,12.05 -6.31,17.03 -3.62,5.11 -8.71,9.3 -15.26,12.57 -6.2,3.08 -12.65,4.65 -19.36,4.68 -6.35,-0.14 -12.1,-1.9 -17.26,-5.28 -5.3,-3.43 -9.55,-8.36 -12.76,-14.8l-18.35 -36.82c-1.4,-2.83 -1.72,-5.48 -0.94,-7.97 0.96,-2.35 2.74,-4.17 5.35,-5.47 2.6,-1.3 5.08,-1.6 7.45,-0.9 2.41,1 4.29,2.87 5.65,5.61z"/>
  <path id="_2" class="fil1" d="M605.73 653.15c0.4,1.02 1.03,2.41 1.91,4.18 3.43,6.89 8.01,12.87 13.74,17.95 5.73,5.08 12.14,8.94 19.23,11.58 7.08,2.64 14.49,3.94 22.2,3.9 7.71,-0.04 15.25,-1.57 22.61,-4.57 0.94,-0.36 2.35,-1.01 4.24,-1.95 7,-3.49 13.11,-8.11 18.32,-13.85 5.22,-5.73 9.23,-12.14 12.03,-19.22 2.81,-7.07 4.21,-14.44 4.21,-22.1 0,-7.66 -1.48,-15.11 -4.41,-22.35 -0.4,-1.02 -1.03,-2.41 -1.91,-4.17 -3.44,-6.89 -8.02,-12.88 -13.74,-17.96 -5.73,-5.08 -12.14,-8.94 -19.23,-11.58 -7.08,-2.64 -14.47,-3.92 -22.17,-3.83 -7.69,0.09 -15.21,1.63 -22.57,4.64 -1.03,0.4 -2.45,1.05 -4.24,1.95 -7.01,3.49 -13.12,8.1 -18.33,13.84 -5.21,5.74 -9.2,12.14 -11.96,19.19 -2.76,7.05 -4.18,14.4 -4.24,22.03 -0.06,7.64 1.38,15.08 4.31,22.32zm77.25 -21.8l-18.74 -37.61c-1.14,-2.3 -1.48,-4.77 -1.01,-7.43 0.6,-2.39 2.29,-4.28 5.07,-5.67 2.88,-1.43 5.52,-1.76 7.93,-0.97 2.4,1 4.24,2.78 5.52,5.34l29.1 58.41c1.37,2.74 1.68,5.39 0.95,7.96 -0.7,2.66 -2.39,4.66 -5.08,6.01 -1.98,0.98 -3.84,1.3 -5.58,0.96 -1.34,-0.22 -3.35,-0.87 -6.02,-1.96l-52.13 -23.62 18.15 36.42c1.41,2.82 1.61,5.37 0.61,7.63 -0.92,2.44 -2.81,4.38 -5.68,5.81 -2.47,1.12 -4.91,1.18 -7.32,0.17 -2,-0.87 -3.78,-2.63 -5.32,-5.28l-29.23 -58.67c-1.24,-2.48 -1.53,-4.97 -0.88,-7.5 0.82,-2.4 2.47,-4.26 4.94,-5.61 1.8,-0.89 3.54,-1.21 5.24,-0.95 1.48,0.03 3.57,0.53 6.29,1.49l53.19 25.07z"/>
  <path class="fil2" d="M73.92 293.99c-1.21,-1.78 -1.89,-3.76 -2.02,-5.94 -0.14,-2.18 0.19,-4.35 0.99,-6.49 0.8,-2.15 1.97,-4.15 3.51,-6.01 1.54,-1.85 3.31,-3.3 5.32,-4.35l16.03 -8.36c10.42,-5.43 20.49,-8.73 30.21,-9.89 9.72,-1.16 18.78,-0.7 27.19,1.38 8.4,2.08 15.95,5.44 22.65,10.06 6.7,4.63 12.21,10.1 16.53,16.41 4.24,6.21 7.13,12.89 8.68,20.05 1.54,7.17 1.36,14.32 -0.54,21.48 -1.9,7.16 -5.59,14.08 -11.08,20.77 -5.48,6.7 -13.16,12.62 -23.05,17.78l-18.64 9.72c-5.21,2.72 -10.24,3.65 -15.08,2.79 -4.85,-0.86 -8.71,-3.39 -11.59,-7.6l-49.11 -71.8zm75.75 39.19c4.41,-2.3 7.79,-4.97 10.16,-8 2.36,-3.04 3.96,-6.2 4.79,-9.49 0.83,-3.29 0.89,-6.59 0.17,-9.9 -0.73,-3.3 -2.07,-6.4 -4.04,-9.28 -1.82,-2.66 -4.14,-4.99 -6.95,-6.98 -2.81,-1.99 -5.98,-3.38 -9.51,-4.17 -3.53,-0.79 -7.42,-0.9 -11.66,-0.34 -4.24,0.55 -8.63,2.02 -13.18,4.39l-2.8 1.46 30.01 43.88 3.01 -1.57z"/>
  <path id="_1_0" class="fil2" d="M202.86 275c-4.77,-6.98 -7.68,-14.41 -8.72,-22.29 -1.03,-7.88 -0.39,-15.54 1.95,-23 2.33,-7.46 6.33,-14.46 11.99,-21.03 5.66,-6.56 12.7,-12.03 21.12,-16.42 8.42,-4.39 17.28,-7.21 26.58,-8.45 9.3,-1.24 18.29,-1.01 26.98,0.7 8.69,1.7 16.76,4.82 24.22,9.36 7.45,4.53 13.56,10.29 18.33,17.27 4.78,6.98 7.68,14.41 8.72,22.29 1.04,7.87 0.34,15.53 -2.1,22.97 -2.43,7.43 -6.48,14.43 -12.15,20.99 -5.66,6.56 -12.7,12.04 -21.12,16.42 -8.42,4.4 -17.28,7.21 -26.58,8.45 -9.3,1.25 -18.24,1.02 -26.83,-0.66 -8.58,-1.69 -16.6,-4.8 -24.05,-9.33 -7.45,-4.53 -13.56,-10.29 -18.34,-17.27zm33.9 -17.23c2.2,3.21 4.94,5.84 8.24,7.88 3.3,2.04 6.94,3.45 10.92,4.23 3.97,0.78 8.03,0.88 12.17,0.3 4.13,-0.57 8.14,-1.87 12.01,-3.89 3.88,-2.02 7.12,-4.51 9.73,-7.45 2.61,-2.94 4.44,-6.1 5.47,-9.5 1.03,-3.39 1.33,-6.86 0.91,-10.39 -0.43,-3.54 -1.74,-6.92 -3.94,-10.13 -2.19,-3.21 -5,-5.85 -8.4,-7.91 -3.4,-2.06 -7.04,-3.47 -10.91,-4.23 -3.88,-0.76 -7.93,-0.86 -12.17,-0.3 -4.24,0.55 -8.3,1.84 -12.18,3.86 -3.87,2.02 -7.06,4.52 -9.57,7.48 -2.5,2.96 -4.33,6.12 -5.46,9.5 -1.14,3.37 -1.44,6.84 -0.91,10.4 0.53,3.55 1.89,6.94 4.09,10.15z"/>
  <path id="_2_1" class="fil2" d="M394.79 224.07c3.03,4.43 3.71,8.66 2.02,12.7 -1.68,4.03 -4.79,7.23 -9.33,9.6 -4.41,2.3 -9.05,3.14 -13.91,2.52 -4.87,-0.62 -8.82,-3.15 -11.85,-7.58l-49.11 -71.8c-3.03,-4.44 -3.71,-8.67 -2.02,-12.7 1.68,-4.04 4.72,-7.21 9.13,-9.5l0.8 -0.42c5.88,-3.07 11.49,-3.21 16.83,-0.44l55.87 22.06 -20.69 -30.26c-3.03,-4.43 -3.7,-8.66 -2.02,-12.69 1.68,-4.04 4.73,-7.21 9.14,-9.51 4.54,-2.36 9.24,-3.24 14.11,-2.62 4.86,0.62 8.81,3.15 11.84,7.58l49.11 71.8c3.03,4.44 3.71,8.67 2.03,12.7 -1.68,4.04 -4.8,7.24 -9.34,9.61 -2.27,1.18 -4.36,1.97 -6.27,2.36 -1.9,0.4 -3.65,0.56 -5.24,0.49 -1.59,-0.08 -2.95,-0.27 -4.07,-0.59 -1.12,-0.31 -2.04,-0.59 -2.74,-0.82l-53.62 -20.75 19.33 28.26z"/>
  <path id="_3" class="fil2" d="M494.41 190.83c-10.95,5.71 -19.58,3.97 -25.87,-5.23l-49.11 -71.8c-6.29,-9.2 -3.96,-16.66 7,-22.37l56.11 -29.26c5.21,-2.72 10.22,-3.49 15.01,-2.31 4.8,1.18 8.49,3.66 11.06,7.43 2.58,3.76 3.33,7.77 2.25,12.02 -1.09,4.25 -4.23,7.73 -9.44,10.45l-39.69 20.69 5.69 8.31 31.66 -16.51c5.21,-2.72 10.22,-3.49 15.01,-2.3 4.8,1.18 8.49,3.65 11.06,7.42 2.58,3.77 3.33,7.77 2.24,12.02 -1.08,4.25 -4.23,7.73 -9.44,10.45l-31.66 16.51 5.68 8.32 39.68 -20.7c5.22,-2.72 10.22,-3.48 15.02,-2.3 4.79,1.18 8.48,3.65 11.06,7.42 2.57,3.77 3.32,7.78 2.24,12.02 -1.08,4.25 -4.23,7.74 -9.44,10.45l-56.12 29.27z"/>
  <path class="fil3" d="M492.92 573.36c27.96,15.79 57.05,8.51 72.74,-18.19 15.68,-26.71 7.5,-55.04 -20.47,-70.82l62.74 -106.82c18.3,-31.16 6.02,-73.65 -31.26,-94.7 -51.26,-28.95 -87.17,-19.59 -136.77,0.41l-146.35 59.01c0,0 -31.71,11.73 -44.78,33.98 -15.69,26.71 -7.5,55.03 25.12,73.46l116.5 65.78 -15.68 26.71c-15.68,26.7 -7.5,55.03 25.12,73.45 32.62,18.42 61.72,11.14 77.4,-15.56l15.69 -26.71zm-94.52 -171.9l2.61 -4.45 68.37 -26.6 4.66 2.63 -31.37 53.41 -44.27 -24.99z"/>
 </g>
</svg>
